#!OML:ASF F:\VICON\USERDATA\INSTALL\rory3\rory3.ASF
:FULLY-SPECIFIED
:DEGREES
35
root -0.10711253418132655 18.229548909662967 11.674336735792751 -3.7116313835543773 -1.2555242251092358 -5.827630901669318
lfemur -20.86312734592796 3.31282090882169 -12.951342246973756
ltibia 70.37454942856651
lfoot -1.8444481948446896 -4.3609748142682365
ltoes -6.366333192488164
rfemur -6.641441655876671 6.437975918773164 32.42470193884746
rtibia 30.404150359725996
rfoot -14.265528467643463 -6.501597980238988
rtoes 8.55215549823415
lowerback 10.103970340935163 0.7834337810638847 4.129985422761303
upperback 0.6036052313379414 1.6354104137478358 2.536309510094599
thorax -5.028642655894129 0.7441445016640772 0.08680597196533624
lowerneck -16.361768859614187 -3.1076539468823343 -1.681000326403347
upperneck 21.72725490735804 -4.049805053462466 0.9346381623252069
head 9.661979913487839 -1.9265114787976687 0.08906242072006476
lclavicle -2.759612599614156e-15 -3.908646005392969e-16
lhumerus -31.64309487121105 -1.5342150363735827 85.13640616126813
lradius 26.959130672262347
lwrist 5.151056197620379
lhand -26.24647056697791 24.92957011649969
lfingers 7.1250199999999975
lthumb 0.30765787549240675 54.907808385628336
rclavicle -2.759612599614156e-15 -3.908646005392969e-16
rhumerus -27.95373539563822 -17.87848281781205 -79.66735895276597
rradius 22.40199145735305
rwrist 6.912424321298862
rhand -17.024644684393532 21.206131274961056
rfingers 7.1250199999999975
rthumb 9.211575434114007 -8.410208763055113
36
root -0.09567798197697136 18.196304068436312 13.782987632040564 -3.280307123736838 -2.3689656205208194 -6.343190132918496
lfemur -24.299827351309077 3.5399989822966034 -12.473698897625852
ltibia 64.98136935498002
lfoot -4.605850089441274 -0.3250371012902188
ltoes -5.379744362742877
rfemur -3.0411766656472388 6.726832123636171 33.863293445041684
rtibia 28.926009639985473
rfoot -16.061824277306968 -6.171786982990622
rtoes 8.034133539427183
lowerback 10.083909051695041 1.4170816002541369 5.545305592866503
upperback 0.5632835341982316 2.631171413178234 2.403354425303998
thorax -4.981547427799736 1.199761829841068 -0.7693646908889128
lowerneck -16.41410697604076 -3.1232668859336066 -1.5769520004697946
upperneck 21.596275935618458 -4.091040655966539 0.985491439084019
head 9.633235932925537 -1.935270421533998 0.0766072593994627
lclavicle -2.0166453304065633e-15 1.0466318541897732e-16
lhumerus -32.91291521426619 -0.634453508382103 85.03051328144355
lradius 26.86494343917664
lwrist 6.061041201299077
lhand -26.199790638507206 24.203641843607137
lfingers 7.1250199999999975
lthumb 0.35273117152122224 54.17887077588137
rclavicle -2.0166453304065633e-15 1.0466318541897732e-16
rhumerus -26.44171115896346 -14.640405653209339 -80.64180869549325
rradius 24.378319066713935
rwrist 5.058104875528455
rhand -17.31130405072134 20.947429000151754
rfingers 7.1250199999999975
rthumb 8.934931439371608 -8.593772457080789
37
root -0.08380690651307604 18.128248895562958 13.331896685756245 -2.6151332930823354 -3.342942170603487 -7.25845755924392
lfemur -27.364823960917803 2.4105726471715268 -11.816749548772794
ltibia 53.074971620587846
lfoot -6.072030716239447 2.9783523243980285
ltoes -4.739293534440339
rfemur 0.1715926675514563 6.959644127784126 34.784549412660944
rtibia 26.019409136678096
rfoot -17.931739005914345 -6.74075951003458
rtoes 7.119820267323204
lowerback 9.97626702248956 1.8579031476346604 6.705262316504043
upperback 0.45426926846957594 3.3545178896399888 2.2813099982689793
thorax -4.958738808565575 1.524466192335425 -1.7058390022041698
lowerneck -16.633223303795134 -3.1667216846127495 -1.5341083756278213
upperneck 21.315497293168097 -4.156677912950154 0.9688773581079946
head 9.560472613229647 -1.957303571781581 0.04722559154952889
lclavicle -2.561606229822921e-15 -2.589147878209551e-16
lhumerus -34.48319364689857 0.023904429993301224 84.98966168702405
lradius 26.513092478178752
lwrist 6.228747006610376
lhand -26.82754654907933 23.328546850254014
lfingers 7.1250199999999975
lthumb -0.2535276023083602 53.30581387378883
rclavicle -2.561606229822921e-15 -2.589147878209551e-16
rhumerus -25.137042435174774 -11.902244573091357 -81.48871121503569
rradius 26.050458406280125
rwrist 2.8324054970391632
rhand -17.80078588066026 21.294671583363577
rfingers 7.1250199999999975
rthumb 8.462593586982587 -8.269357737351545
38
root -0.05201782343321504 18.048596951439862 14.933863856484724 -1.826770200231898 -4.144339012763759 -7.893312070547866
lfemur -28.353936459767947 -0.11583000454661674 -10.53243387826299
ltibia 38.4016974443256
lfoot -6.353113814900406 6.609744921095196
ltoes -4.438446315644694
rfemur 3.9843989426352895 7.020174640425502 35.57480025927623
rtibia 23.10783515546871
rfoot -19.24203226524583 -6.790386726708869
rtoes 5.5843862891002995
lowerback 9.718881302630054 2.313180521104681 7.782822254610163
upperback 0.35864480953585853 4.05957886647203 2.236292035471581
thorax -4.852856163909045 1.848137383562733 -2.430965466034987
lowerneck -16.919977764994588 -3.1720959758030847 -1.4539522544313004
upperneck 21.016006074866553 -4.167177475468785 0.9804433141116429
head 9.484811896906656 -1.9574032310788434 0.0284071902084492
lclavicle -2.6425169365712697e-15 -3.1299489476106985e-16
lhumerus -35.7241953463413 1.0033227732457064 84.97442244232694
lradius 26.150342326701058
lwrist 6.288213117510617
lhand -27.10945284083913 22.527958713894947
lfingers 7.1250199999999975
lthumb -0.5257820473070376 52.50215396604368
rclavicle -2.6425169365712697e-15 -3.1299489476106985e-16
rhumerus -23.842661292584232 -9.472162953971148 -82.07840214399417
rradius 27.69456276549613
rwrist 1.3658217445874303
rhand -18.145426510760156 22.20105571370477
rfingers 7.1250199999999975
rthumb 8.129998178282003 -7.317840057552648
39
root -0.010288301575772985 17.94747737799208 15.696227974934413 -1.084555343297838 -4.832275349818942 -8.572038237058797
lfemur -28.805925519228893 -3.217381872666072 -9.12471598004146
ltibia 23.070791899118753
lfoot -6.64278852969845 9.29231941261212
ltoes -4.901501963057761
rfemur 7.884952715180299 7.103274959733555 36.03485342633847
rtibia 20.26735458880718
rfoot -20.984647291792562 -7.247748492969673
rtoes 2.9166245457168243
lowerback 9.352630579890395 2.705342543894762 8.411327543257835
upperback 0.26984383714780696 4.617239085890601 2.159773632040165
thorax -4.721285737020686 2.111898880007937 -2.9894128732966228
lowerneck -17.172889343248286 -3.2123205793747203 -1.3995210168413328
upperneck 20.74428659841448 -4.231120808097096 1.0532939686975977
head 9.422834789297513 -1.9781122934704913 0.017900260480357727
lclavicle -3.2094428394862005e-15 -6.911432158069485e-16
lhumerus -37.072249894735336 2.023508844235689 84.79283499153364
lradius 24.931483345661025
lwrist 5.433591067099618
lhand -27.462232628249655 22.49872681769882
lfingers 7.1250199999999975
lthumb -0.8664774999430291 52.472214238586695
rclavicle -3.2094428394862005e-15 -6.911432158069485e-16
rhumerus -22.66093362824389 -8.12999193927303 -82.53519900129325
rradius 28.85654666350551
rwrist 0.40318759391828696
rhand -18.434697857210647 23.17346606320535
rfingers 7.1250199999999975
rthumb 7.850853806098563 -6.4116544371039925
40
root 0.08571823522718358 17.860246868439653 17.703258849316086 -0.5123966154035295 -5.2480434336129775 -8.510418079522772
lfemur -27.109232776279313 -5.371028977943725 -8.265285112087605
ltibia 12.923136250123669
lfoot -5.647448220726589 10.215969868496654
ltoes -4.696291714420348
rfemur 12.045702700886542 7.315612664241104 36.223557122526685
rtibia 20.34204775624029
rfoot -21.228894478813526 -6.081199815959673
rtoes -0.2686334233551033
lowerback 9.046138171161935 3.0772670626882443 8.716015439663025
upperback 0.20018585261258234 5.101358301235099 2.097213904982846
thorax -4.588977996182631 2.349315178957094 -3.0790441823544077
lowerneck -17.307392871054404 -3.236454466530482 -1.2879283395177725
upperneck 20.66770510374632 -4.2835818021993015 1.2048434664038155
head 9.424666301004649 -1.9911572800036375 0.043868468898040885
lclavicle -2.417375433292661e-15 -1.6275335114421323e-16
lhumerus -37.68594069032433 3.6658118635305703 84.36428476679183
lradius 23.71275033566347
lwrist 4.236699285686881
lhand -27.238613798765346 23.0986473920894
lfingers 7.1250199999999975
lthumb -0.6504907423572621 53.07461604619113
rclavicle -2.417375433292661e-15 -1.6275335114421323e-16
rhumerus -21.796988306012658 -7.597879438611946 -82.47310216982316
rradius 29.77007403225414
rwrist 0.17484524615138852
rhand -18.510051913637465 23.88975628603828
rfingers 7.1250199999999975
rthumb 7.77806010501646 -5.684652658057272
41
root 0.18556469574258452 17.77735000882599 18.938668403380316 -0.4736960665675469 -5.378786716297867 -8.150039916937887
lfemur -26.28955612193225 -5.966367728722593 -9.17269262654029
ltibia 9.082047754527505
lfoot -4.555876177745458 8.087021484028494
ltoes -4.679191028068978
rfemur 14.583288127379477 7.26854322080081 35.33824849019843
rtibia 21.64301463935909
rfoot -19.915830882693385 -4.091704995717299
rtoes -3.586703262446567
lowerback 8.816105532393443 3.197505497227738 8.34197702642266
upperback 0.12868775232980673 5.190355528819503 1.9091359705435158
thorax -4.537662069974428 2.402931890343272 -3.0952927290961663
lowerneck -17.270235172912024 -3.308887951808217 -1.302746188165649
upperneck 20.684910046138157 -4.404740534943467 1.3385476650759278
head 9.426874131719918 -2.032782661906009 0.06878143614763405
lclavicle -2.6275880735282803e-15 -3.0285676223366103e-16
lhumerus -38.47633344753944 5.0987401645920345 83.69934444291307
lradius 22.11927819608548
lwrist 2.43508134491554
lhand -26.862150771355193 23.533950522247746
lfingers 7.1250199999999975
lthumb -0.28690072345966416 53.5116762581848
rclavicle -2.6275880735282803e-15 -3.0285676223366103e-16
rhumerus -21.720272356578935 -8.267572548748559 -82.41230696284812
rradius 30.068357908364423
rwrist 0.5297869384108012
rhand -18.625966371164104 24.15689238278871
rfingers 7.1250199999999975
rthumb 7.666129978679751 -5.491080125661961
42
root 0.299093645473233 17.734834257191988 20.698182666918697 -0.8967038198582364 -5.102057892761902 -7.203388244723021
lfemur -25.434979662434728 -5.271495970785022 -11.226320024244373
ltibia 11.970468151457368
lfoot -2.9573360495393604 4.320184704566044
ltoes -3.935519832009591
rfemur 15.814160989096466 6.727127814170821 33.84867324683833
rtibia 26.750433990760783
rfoot -14.950468662553702 -1.0004313903180515
rtoes -5.0708060247641935
lowerback 8.68503493816275 3.2544268780551353 7.69674066579082
upperback 0.09562811994431769 5.16384907810665 1.6339094770328821
thorax -4.521640275144916 2.4048486462863012 -2.963934712583306
lowerneck -17.089361353398814 -3.4039117459685477 -1.3651976586828964
upperneck 20.810095783582295 -4.552229225443305 1.497804912568129
head 9.443187215087747 -2.0872749648896707 0.11482122483955004
lclavicle -2.4259152527525174e-15 -1.6827794299575502e-16
lhumerus -39.06232686147564 6.829370268136454 82.88963425066655
lradius 20.49900868527346
lwrist 0.427862441581941
lhand -26.047457661437935 24.054976385626244
lfingers 7.1250199999999975
lthumb 0.49989519565559315 54.03107748381529
rclavicle -2.4259152527525174e-15 -1.6827794299575502e-16
rhumerus -22.143590688486857 -9.502471647278535 -82.24989665496875
rradius 30.020565444889304
rwrist 1.2386152994827642
rhand -18.664430420738572 24.11150488220841
rfingers 7.1250199999999975
rthumb 7.628980290336976 -5.5966977541160094
